<svg width="80" height="54" viewBox="0 0 80 54" fill="none" xmlns="http://www.w3.org/2000/svg">
<g clip-path="url(#clip0_2_4)">
<path d="M80 48.4H0V53.4H80V48.4Z" fill="#F6FCFF"/>
<path d="M73.94 42.4H6.05V47.4H73.94V42.4Z" fill="#F6FCFF"/>
<path d="M70.16 36.41H10.12V41.41H70.16V36.41Z" fill="#F6FCFF"/>
<path d="M21.85 19.51C21.916 18.788 21.8204 18.0604 21.57 17.38C21.4346 17.2134 21.2586 17.0845 21.0589 17.0057C20.8593 16.9269 20.6427 16.9008 20.43 16.93V16.42H24.63V16.93C24.03 16.93 23.63 17.15 23.48 17.48C23.256 18.2419 23.1713 19.038 23.23 19.83V31.74C23.1704 32.532 23.2551 33.3283 23.48 34.09C23.64 34.42 24.03 34.61 24.63 34.64V35.15H20.43V34.64C21.05 34.64 21.43 34.42 21.6 34.08C21.8252 33.3218 21.91 32.5287 21.85 31.74V21L17.36 32.13C17.3514 32.6678 17.3782 33.2057 17.44 33.74C17.4797 33.9872 17.6033 34.2132 17.79 34.38C18.0869 34.5715 18.4374 34.6626 18.79 34.64V35.15H14.59V34.64C14.8134 34.6599 15.038 34.6194 15.2404 34.5226C15.4427 34.4258 15.6153 34.2764 15.74 34.09C15.9683 33.3289 16.0564 32.5326 16 31.74V19.83C16.0587 19.038 15.974 18.2419 15.75 17.48C15.58 17.15 15.2 16.97 14.6 16.93V16.42H18.78V16.93C18.17 16.93 17.78 17.15 17.62 17.48C17.396 18.2419 17.3113 19.038 17.37 19.83V30.62L21.85 19.51Z" fill="#F6FCFF"/>
<path d="M30.88 35.15L27.14 19.39V31.91C27.0905 32.6322 27.1546 33.3577 27.33 34.06C27.3892 34.232 27.5014 34.3809 27.6506 34.4851C27.7997 34.5893 27.9781 34.6436 28.16 34.64H28.51V35.15H25.13V34.64H25.48C25.6849 34.6355 25.8823 34.562 26.0402 34.4313C26.1981 34.3006 26.3073 34.1204 26.35 33.92C26.4887 33.2629 26.5424 32.5908 26.51 31.92V19.67C26.5313 19.0662 26.481 18.462 26.36 17.87C26.3036 17.6179 26.1791 17.3861 26 17.2C25.8798 17.1001 25.7411 17.0248 25.5919 16.9785C25.4426 16.9321 25.2856 16.9157 25.13 16.93V16.42H27.88L31.39 31.08L34.85 16.42H37.6V16.93H37.26C37.0538 16.934 36.855 17.0072 36.6955 17.1378C36.5359 17.2683 36.4248 17.4487 36.38 17.65C36.2429 18.3073 36.1892 18.9793 36.22 19.65V31.91C36.1717 32.6327 36.2392 33.3586 36.42 34.06C36.4823 34.232 36.5968 34.3803 36.7473 34.4842C36.8979 34.5882 37.0771 34.6426 37.26 34.64H37.6V35.15H33.48V34.64H33.82C34.0259 34.6392 34.2252 34.5669 34.3838 34.4357C34.5425 34.3044 34.6507 34.1221 34.69 33.92C34.834 33.2637 34.8878 32.5908 34.85 31.92V19.39L31.12 35.15H30.88Z" fill="#F6FCFF"/>
<path d="M46.71 16L46.93 22.37H46.71C46.5702 20.9261 46.1417 19.5251 45.45 18.25C45.2548 17.8852 44.9674 17.5778 44.6165 17.3586C44.2657 17.1393 43.8635 17.0156 43.45 17C43.1057 17.0115 42.7686 17.1024 42.4651 17.2654C42.1616 17.4284 41.8998 17.6593 41.7 17.94C41.072 18.8351 40.6549 19.8607 40.48 20.94C40.1509 22.6363 40.0001 24.3623 40.03 26.09C40.0083 27.5709 40.1491 29.0498 40.45 30.5C40.6405 31.5406 41.0759 32.5209 41.72 33.36C41.9467 33.6602 42.2377 33.9058 42.5716 34.0788C42.9056 34.2518 43.2741 34.3479 43.65 34.36C43.968 34.3572 44.2817 34.2861 44.5698 34.1515C44.8579 34.0169 45.1137 33.822 45.32 33.58C46.0203 32.6411 46.5547 31.5893 46.9 30.47L47.13 30.75C46.807 32.069 46.2295 33.3123 45.43 34.41C45.1588 34.7666 44.8097 35.0564 44.4093 35.2575C44.009 35.4585 43.568 35.5654 43.12 35.57C41.5133 35.57 40.27 34.42 39.39 32.12C38.689 30.1816 38.35 28.1309 38.39 26.07C38.3752 24.3287 38.5938 22.5932 39.04 20.91C39.3597 19.5791 39.9711 18.3358 40.83 17.27C41.1316 16.8844 41.5149 16.5705 41.9524 16.3509C42.3899 16.1313 42.8706 16.0114 43.36 16C43.7538 16.0224 44.1394 16.1223 44.4946 16.2939C44.8498 16.4654 45.1677 16.7054 45.43 17C45.63 17.2 45.78 17.3 45.86 17.3C45.94 17.3 46.1 17.21 46.2 17.04C46.338 16.7222 46.4257 16.3848 46.46 16.04L46.71 16Z" fill="#F6FCFF"/>
<path d="M55.19 19.51C55.256 18.788 55.1604 18.0604 54.91 17.38C54.7746 17.2134 54.5986 17.0845 54.3989 17.0057C54.1993 16.9269 53.9827 16.9008 53.77 16.93V16.42H58V16.93C57.4 16.93 57 17.15 56.85 17.48C56.626 18.2419 56.5413 19.038 56.6 19.83V31.74C56.5404 32.532 56.6251 33.3283 56.85 34.09C57.01 34.42 57.4 34.61 58 34.64V35.15H53.8V34.64C54.42 34.64 54.8 34.42 54.97 34.08C55.1952 33.3218 55.28 32.5287 55.22 31.74V21L50.7 32.13C50.6861 32.6679 50.7128 33.2061 50.78 33.74C50.8197 33.9872 50.9433 34.2132 51.13 34.38C51.4269 34.5715 51.7774 34.6626 52.13 34.64V35.15H47.93V34.64C48.1534 34.6599 48.378 34.6194 48.5804 34.5226C48.7827 34.4258 48.9553 34.2764 49.08 34.09C49.2997 33.3272 49.3843 32.5319 49.33 31.74V19.83C49.3834 19.0381 49.2989 18.2429 49.08 17.48C48.91 17.15 48.53 16.97 47.93 16.93V16.42H52.11V16.93C51.5 16.93 51.11 17.15 50.95 17.48C50.726 18.2419 50.6413 19.038 50.7 19.83V30.62L55.19 19.51Z" fill="#F6FCFF"/>
<path d="M66.7 16.42L66.81 20.81H66.53C66.5092 20.2548 66.4389 19.7027 66.32 19.16C66.219 18.7317 66.0166 18.3339 65.73 18C65.5994 17.8699 65.4429 17.7687 65.2706 17.7033C65.0982 17.6378 64.914 17.6094 64.73 17.62H63.4V31.91C63.3505 32.6322 63.4146 33.3577 63.59 34.06C63.6524 34.232 63.7668 34.3803 63.9173 34.4842C64.0679 34.5882 64.2471 34.6426 64.43 34.64H64.76V35.15H60.65V34.64H61C61.2049 34.6355 61.4023 34.5619 61.5602 34.4313C61.7181 34.3006 61.8273 34.1204 61.87 33.92C62.0087 33.2629 62.0624 32.5908 62.03 31.92V17.59H60.86C60.5142 17.5565 60.1663 17.6261 59.86 17.79C59.5504 18.0509 59.3272 18.3996 59.22 18.79C59.0172 19.4374 58.9127 20.1116 58.91 20.79H58.63L58.75 16.4L66.7 16.42Z" fill="#F6FCFF"/>
<path d="M11.13 14.9H68.86L40.56 0L11.13 14.9Z" fill="#F6FCFF"/>
</g>
<defs>
<clipPath id="clip0_2_4">
<rect width="80" height="53.4" fill="white"/>
</clipPath>
</defs>
</svg>
